<?xml version="1.0" encoding="UTF-8" standalone="no"?>
<svg xmlns="http://www.w3.org/2000/svg" viewBox="0 0 400 400" width="400" height="400">
  <g fill="#FFFFFF">
    <!-- Simplified Congruence logo in white color -->
    <path d="M200 50 C 120 50, 60 120, 60 200 C 60 280, 120 350, 200 350 C 280 350, 340 280, 340 200 C 340 120, 280 50, 200 50 Z M 200 70 C 270 70, 320 130, 320 200 C 320 270, 270 330, 200 330 C 130 330, 80 270, 80 200 C 80 130, 130 70, 200 70 Z" />
    <path d="M160 100 L 160 300 L 200 260 L 240 300 L 240 100 L 200 140 Z" />
  </g>
</svg>